<svg xmlns="http://www.w3.org/2000/svg" viewBox="0 0 600 600" width="100%" height="100%">
  <path d="M 210 100 A 220 220 0 0 1 210 490" fill="none" stroke="#FFFFFF" stroke-width="26" stroke-linecap="round"/>
  
  <line x1="210" y1="100" x2="215" y2="70" stroke="#FFFFFF" stroke-width="16" stroke-linecap="round" />
  <line x1="295" y1="145" x2="316" y2="124" stroke="#FFFFFF" stroke-width="16" stroke-linecap="round" />
  <line x1="361" y1="220" x2="389" y2="211" stroke="#FFFFFF" stroke-width="16" stroke-linecap="round" />
  <line x1="380" y1="295" x2="408" y2="295" stroke="#FFFFFF" stroke-width="16" stroke-linecap="round" />
  <line x1="361" y1="370" x2="389" y2="379" stroke="#FFFFFF" stroke-width="16" stroke-linecap="round" />
  <line x1="295" y1="445" x2="316" y2="466" stroke="#FFFFFF" stroke-width="16" stroke-linecap="round" />
  <line x1="210" y1="490" x2="215" y2="520" stroke="#FFFFFF" stroke-width="16" stroke-linecap="round" />

  <path d="M 190 205 C 125 130, 30 205, 30 295 C 30 385, 125 445, 190 505 C 255 445, 350 385, 350 295 C 350 205, 255 130, 190 205 Z" fill="#FF4B4B" />
  
  <path d="M 30 295 L 135 295 L 155 255 L 175 350 L 200 210 L 222 325 L 242 280 L 262 295 L 350 295" fill="none" stroke="#FFFFFF" stroke-width="15" stroke-linecap="round" stroke-linejoin="round" />
</svg>
