<svg xmlns="http://www.w3.org/2000/svg" viewBox="0 0 512 512" width="100%" height="100%">
  <path d="M 220 160 C 160 90, 70 160, 70 245 C 70 330, 160 385, 220 440 C 280 385, 370 330, 370 245 C 370 160, 280 90, 220 160 Z" fill="#FF4B4B" />
  
  <path d="M 70 245 L 165 245 L 183 210 L 202 300 L 225 155 L 246 275 L 265 230 L 283 245 L 370 245" fill="none" stroke="#FFFFFF" stroke-width="14" stroke-linecap="round" stroke-linejoin="round" />

  <path d="M 265 65 A 180 180 0 0 1 265 425" fill="none" stroke="#FFFFFF" stroke-width="16" stroke-linecap="round"/>
  
  <line x1="265" y1="65" x2="265" y2="85" stroke="#FFFFFF" stroke-width="11" stroke-linecap="round" />
  <line x1="355" y1="90" x2="340" y2="103" stroke="#FFFFFF" stroke-width="11" stroke-linecap="round" />
  <line x1="420" y1="155" x2="399" y2="164" stroke="#FFFFFF" stroke-width="11" stroke-linecap="round" />
  <line x1="445" y1="245" x2="423" y2="245" stroke="#FFFFFF" stroke-width="11" stroke-linecap="round" />
  <line x1="420" y1="335" x2="399" y2="326" stroke="#FFFFFF" stroke-width="11" stroke-linecap="round" />
  <line x1="355" y1="400" x2="340" y2="387" stroke="#FFFFFF" stroke-width="11" stroke-linecap="round" />
  <line x1="265" y1="425" x2="265" y2="405" stroke="#FFFFFF" stroke-width="11" stroke-linecap="round" />
</svg>
